<?xml version="1.0" encoding="utf-8"?>
<!-- Generator: Adobe Illustrator 21.1.0, SVG Export Plug-In . SVG Version: 6.00 Build 0)  -->
<svg version="1.1" xmlns="http://www.w3.org/2000/svg" xmlns:xlink="http://www.w3.org/1999/xlink" x="0px" y="0px"
	 viewBox="0 0 720 720" style="enable-background:new 0 0 720 720;" xml:space="preserve">
<style type="text/css">
	.st0{fill:#FFFFFF;}
	.st1{fill:#FDFDFD;}
	.st2{fill:#FCFCFC;}
	.st3{fill:#FAFBFB;}
	.st4{fill:#F9F9FA;}
	.st5{fill:#F8F8F9;}
	.st6{fill:#F7F7F8;}
	.st7{fill:#F6F7F7;}
	.st8{fill:#F5F6F6;}
	.st9{fill:#F4F5F5;}
	.st10{fill:#F4F4F4;}
	.st11{fill:#F3F3F4;}
	.st12{fill:#F2F2F3;}
	.st13{fill:#F1F2F2;}
	.st14{fill:#F0F1F1;}
	.st15{fill:#EFF0F1;}
	.st16{fill:#EFEFF0;}
	.st17{fill:#EEEEEF;}
	.st18{fill:#EDEEEE;}
	.st19{fill:#ECEDEE;}
	.st20{fill:#EBECED;}
	.st21{fill:#EBEBEC;}
	.st22{fill:#EAEAEB;}
	.st23{fill:#E9EAEB;}
	.st24{fill:#E8E9EA;}
	.st25{fill:#E7E8E9;}
	.st26{fill:#E6E7E8;}
	.st27{fill:url(#SVGID_1_);}
	.st28{fill:url(#SVGID_2_);}
	.st29{fill:url(#SVGID_3_);}
</style>
<g id="Layer_1">
</g>
<g id="Green_Earth_Icon_Large">
	<g>
		<g>
			<path class="st0" d="M689.7,433.2c-13,7.7-30.2,5.9-44.7,6.2c-22.2,0.5-26.6,42.4-77.3,29.4c-35.3,85.4-110.8,149.9-203,169.8
				c-19.3,4.2-39.4,6.4-60.3,6.4c-5.2,0-10.4-0.1-15.5-0.4C137.9,636.2,19.3,511.8,19.3,360c0-157.4,127.6-285,285-285
				c110.1,0,205.5,62.4,253,153.7c34.5,29.8,62.6,80.4,56.4,125.7c25.9,2.6,70.9,14.7,82.4,40.6
				C704.4,413.8,701.1,426.4,689.7,433.2z"/>
			<path class="st1" d="M304.3,75.2c110,0,205.4,62.4,252.9,153.6c34.5,29.8,62.6,80.5,56.3,125.8c25.8,2.5,70.9,14.6,82.4,40.5
				c8.3,18.6,5.1,31.1-6.1,37.8c-12.7,7.7-29.7,6-44,6.3c-5,0.1-9.1,2.3-13,5.4c-9.8,7.7-18.3,21-36.7,24.8
				c-7.2,1.5-15.8,1.4-26.6-1.1c-5.7,13.1-12.9,25.4-20.5,37.2c-42,65.2-105.8,115.8-183.9,132.8c-2.8,0.6-5.5,1.2-8.3,1.7
				c-16.8,3.2-34.3,4.8-52.3,4.8c-5.2,0-10.4-0.1-15.5-0.4C138,636,19.5,511.7,19.5,360C19.5,202.7,147,75.2,304.3,75.2z"/>
			<path class="st2" d="M304.3,75.4c109.9,0,205.3,62.3,252.7,153.6c34.6,29.8,62.6,80.6,56.3,125.8c25.8,2.5,71,14.6,82.4,40.4
				c8.2,18.4,5.1,30.7-5.8,37.4c-12.4,7.6-29.2,6.1-43.4,6.5c-4.9,0.1-9,2.3-12.9,5.2c-9.9,7.5-18.2,20.2-36.3,24.2
				c-7.1,1.6-15.6,1.7-26.1-0.6c-5.9,12.9-13.7,24.6-21.5,35.9c-44.2,64.3-105.7,117-184.2,134.2c-2.8,0.6-5.6,1.2-8.4,1.7
				c-16.9,3.2-34.5,4.9-52.5,4.9c-5.2,0-10.3-0.1-15.5-0.4C138.1,635.8,19.6,511.6,19.6,360C19.6,202.8,147.1,75.4,304.3,75.4z"/>
			<path class="st3" d="M304.3,75.5c109.9,0,205.2,62.3,252.6,153.5c34.6,29.8,62.7,80.7,56.2,125.9c25.8,2.4,71.1,14.5,82.5,40.3
				c8.1,18.2,5.1,30.4-5.5,37c-12.1,7.6-28.7,6.2-42.8,6.6c-4.9,0.1-8.9,2.2-12.8,5c-10.1,7.2-18.1,19.3-36,23.6
				c-7,1.7-15.3,2-25.6,0c-6.1,12.7-14.5,23.7-22.6,34.7c-46.4,63.2-105.6,118.2-184.6,135.7c-2.8,0.6-5.6,1.2-8.4,1.7
				c-17,3.2-34.7,4.9-52.8,4.9c-5.2,0-10.3-0.1-15.5-0.4C138.2,635.7,19.8,511.5,19.8,360C19.8,202.9,147.2,75.5,304.3,75.5z"/>
			<path class="st4" d="M304.3,75.7c109.8,0,205.1,62.3,252.4,153.4c34.7,29.9,62.7,80.7,56.1,125.9c25.7,2.4,71.1,14.5,82.5,40.2
				c8,18,5.1,30-5.3,36.6c-11.9,7.6-28.2,6.4-42.2,6.7c-4.8,0.1-8.7,2.1-12.7,4.8c-10.2,7-18,18.4-35.6,23.1
				c-6.9,1.8-15,2.3-25.1,0.5c-6.2,12.5-15.3,22.8-23.6,33.4C502.3,562.5,445.3,619.9,366,637.5c-2.8,0.6-5.6,1.2-8.5,1.8
				c-17.1,3.3-34.8,5-53.1,5c-5.2,0-10.3-0.1-15.5-0.4C138.3,635.5,20,511.4,20,360C20,203,147.3,75.7,304.3,75.7z"/>
			<path class="st5" d="M304.3,75.9c109.8,0,205,62.3,252.3,153.4c34.7,29.9,62.8,80.8,56.1,126c25.7,2.4,71.2,14.4,82.6,40.1
				c7.9,17.8,5.1,29.7-5,36.2c-11.6,7.6-27.7,6.5-41.6,6.9c-4.7,0.1-8.6,2.1-12.5,4.6c-10.3,6.7-18,17.5-35.3,22.5
				c-6.8,1.9-14.7,2.6-24.6,1.1c-6.4,12.3-14.3,23.6-24.7,32.2C513,568,446.1,619.4,366.4,637.2c-2.8,0.6-5.7,1.2-8.5,1.8
				c-17.2,3.3-35,5.1-53.4,5.1c-5.2,0-10.3-0.1-15.5-0.4C138.4,635.3,20.2,511.3,20.2,360C20.2,203.1,147.4,75.9,304.3,75.9z"/>
			<path class="st6" d="M304.3,76.1c109.7,0,204.9,62.2,252.1,153.3c34.7,29.9,62.8,80.9,56,126c25.6,2.3,71.3,14.4,82.6,40
				c7.8,17.6,5.1,29.3-4.7,35.8c-11.3,7.5-27.2,6.6-41,7c-4.7,0.1-8.5,2-12.4,4.4c-10.5,6.4-17.9,16.6-35,21.9
				c-6.7,2-14.4,2.9-24.1,1.6c-6.6,12.1-14.7,23.1-25.7,30.9c-38.3,69.9-105.4,121.9-185.5,140c-2.8,0.6-5.7,1.2-8.6,1.8
				c-17.3,3.4-35.2,5.1-53.7,5.1c-5.2,0-10.3-0.1-15.4-0.4C138.5,635.1,20.4,511.2,20.4,360C20.4,203.2,147.5,76.1,304.3,76.1z"/>
			<path class="st7" d="M304.3,76.3c109.7,0,204.8,62.2,252,153.2c34.8,29.9,62.8,81,55.9,126.1c25.6,2.3,71.3,14.3,82.7,39.9
				c7.7,17.4,5.1,28.9-4.4,35.4c-11,7.5-26.7,6.8-40.4,7.2c-4.6,0.1-8.4,1.9-12.3,4.2c-10.6,6.2-17.8,15.7-34.6,21.3
				c-6.6,2.2-14.2,3.2-23.5,2.2c-6.8,11.9-15.1,22.6-26.8,29.6c-38,70.6-105.4,123.2-185.8,141.4c-2.8,0.7-5.7,1.3-8.6,1.8
				c-17.4,3.4-35.4,5.2-53.9,5.2c-5.2,0-10.3-0.1-15.4-0.4C138.6,635,20.5,511.1,20.5,360C20.5,203.3,147.6,76.3,304.3,76.3z"/>
			<path class="st8" d="M304.3,76.5c109.6,0,204.7,62.2,251.9,153.2c34.8,29.9,62.9,81.1,55.9,126.1c25.6,2.2,71.4,14.3,82.7,39.8
				c7.6,17.2,5.1,28.6-4.2,35c-10.8,7.4-26.2,6.9-39.8,7.3c-4.5,0.1-8.3,1.9-12.2,4c-10.8,5.9-17.7,14.8-34.3,20.7
				c-6.4,2.3-13.9,3.5-23,2.7c-7,11.7-15.6,22.1-27.8,28.4C515.7,564.8,448.2,618,367.3,636.5c-2.9,0.7-5.7,1.3-8.6,1.8
				c-17.4,3.4-35.6,5.2-54.2,5.2c-5.2,0-10.3-0.1-15.4-0.4C138.7,634.8,20.7,511,20.7,360C20.7,203.4,147.7,76.5,304.3,76.5z"/>
			<path class="st9" d="M304.3,76.6c109.5,0,204.6,62.2,251.7,153.1c34.8,29.9,62.9,81.1,55.8,126.2c25.5,2.2,71.5,14.2,82.8,39.7
				c7.5,17,5.1,28.2-3.9,34.6c-10.5,7.4-25.7,7-39.2,7.4c-4.5,0.1-8.3,1.8-12.1,3.7c-11,5.7-17.6,13.9-33.9,20.1
				c-6.3,2.4-13.6,3.8-22.5,3.3c-7.2,11.5-16,21.5-28.9,27.1c-37.5,71.9-105.2,125.6-186.5,144.3c-2.9,0.7-5.8,1.3-8.7,1.9
				c-17.5,3.5-35.7,5.3-54.5,5.3c-5.2,0-10.3-0.1-15.4-0.4c-150.3-8.4-268.2-132-268.2-283C20.9,203.5,147.8,76.6,304.3,76.6z"/>
			<path class="st10" d="M304.3,76.8c109.5,0,204.4,62.1,251.6,153c34.9,30,62.9,81.2,55.7,126.2c25.5,2.1,71.5,14.2,82.8,39.6
				c7.5,16.8,5.1,27.9-3.6,34.2c-10.2,7.4-25.2,7.1-38.5,7.6c-4.4,0.1-8.2,1.7-11.9,3.5c-11.1,5.4-17.6,13-33.6,19.5
				c-6.2,2.5-13.3,4.1-22,3.8c-7.3,11.2-16.5,21-29.9,25.9C517.6,562.8,449.6,617.1,368,635.9c-2.9,0.7-5.8,1.3-8.7,1.9
				c-17.6,3.5-35.9,5.4-54.8,5.4c-5.2,0-10.3-0.1-15.4-0.4c-150.2-8.3-268-132-268-282.8C21.1,203.6,147.9,76.8,304.3,76.8z"/>
			<path class="st11" d="M304.3,77c109.4,0,204.3,62.1,251.4,153c34.9,30,63,81.3,55.7,126.3c25.4,2.1,71.6,14.1,82.9,39.5
				c7.4,16.6,5.1,27.5-3.4,33.8c-9.9,7.4-24.7,7.3-37.9,7.7c-4.3,0.1-8.1,1.6-11.8,3.3c-11.3,5.1-17.5,12.1-33.2,18.9
				c-6.1,2.6-13,4.4-21.5,4.4c-7.5,11-16.9,20.5-31,24.6c-36.9,73.2-105.1,128.1-187.1,147.1c-2.9,0.7-5.8,1.3-8.8,1.9
				c-17.7,3.6-36.1,5.4-55.1,5.4c-5.2,0-10.3-0.1-15.4-0.4C139,634.2,21.3,510.7,21.3,360C21.3,203.7,148,77,304.3,77z"/>
			<path class="st12" d="M304.3,77.2c109.4,0,204.2,62.1,251.3,152.9c34.9,30,63,81.4,55.6,126.3c25.4,2,71.6,14.1,82.9,39.4
				c7.3,16.4,5.1,27.2-3.1,33.4c-9.6,7.3-24.2,7.4-37.3,7.8c-4.3,0.1-8,1.6-11.7,3.1c-11.5,4.8-17.4,11.3-32.9,18.3
				c-6,2.7-12.7,4.7-21,4.9c-7.7,10.8-17.4,20-32.1,23.4c-36.6,73.8-105,129.3-187.4,148.6c-2.9,0.7-5.9,1.3-8.8,1.9
				c-17.8,3.6-36.3,5.5-55.3,5.5c-5.2,0-10.3-0.1-15.4-0.4C139.1,634.1,21.4,510.6,21.4,360C21.4,203.8,148.1,77.2,304.3,77.2z"/>
			<path class="st13" d="M304.3,77.4c109.3,0,204.1,62.1,251.1,152.8c35,30,63,81.5,55.5,126.4c25.4,2,71.7,14,83,39.4
				c7.2,16.2,5.1,26.8-2.8,33c-9.4,7.3-23.7,7.5-36.7,8c-4.2,0.1-7.9,1.5-11.6,2.9c-11.7,4.5-17.3,10.4-32.6,17.7
				c-5.9,2.8-12.5,5-20.4,5.5c-7.9,10.6-17.8,19.5-33.1,22.1c-36.4,74.5-105,130.5-187.7,150c-2.9,0.7-5.9,1.3-8.9,1.9
				c-17.9,3.6-36.5,5.5-55.6,5.5c-5.2,0-10.3-0.1-15.4-0.4C139.2,633.9,21.6,510.5,21.6,360C21.6,203.9,148.2,77.4,304.3,77.4z"/>
			<path class="st14" d="M304.3,77.5c109.3,0,204,62,251,152.8c35,30,63.1,81.5,55.5,126.4c25.3,1.9,71.8,14,83,39.3
				c7.1,16,5.1,26.5-2.6,32.6c-9.1,7.3-23.2,7.6-36.1,8.1c-4.1,0.1-7.8,1.4-11.4,2.7c-11.9,4.2-17.3,9.5-32.2,17.1
				c-5.8,2.9-12.2,5.3-19.9,6c-8.1,10.4-18.3,19-34.2,20.8c-36.1,75.1-104.9,131.8-188,151.5c-2.9,0.7-5.9,1.4-8.9,2
				c-17.9,3.7-36.6,5.6-55.9,5.6c-5.2,0-10.3-0.1-15.4-0.4C139.3,633.7,21.8,510.4,21.8,360C21.8,204,148.3,77.5,304.3,77.5z"/>
			<path class="st15" d="M304.3,77.7c109.2,0,203.9,62,250.8,152.7c35.1,30,63.1,81.6,55.4,126.5c25.3,1.9,71.8,13.9,83,39.2
				c7,15.8,5.1,26.1-2.3,32.2c-8.8,7.3-22.7,7.8-35.5,8.2c-4.1,0.1-7.7,1.3-11.3,2.5c-12,3.9-17.2,8.6-31.9,16.5
				c-5.7,3-11.9,5.6-19.4,6.6c-8.3,10.2-18.7,18.5-35.2,19.6c-35.8,75.8-104.8,133-188.3,152.9c-3,0.7-5.9,1.4-8.9,2
				c-18,3.7-36.8,5.7-56.2,5.7c-5.2,0-10.3-0.1-15.4-0.4C139.4,633.5,22,510.3,22,360C22,204.1,148.4,77.7,304.3,77.7z"/>
			<path class="st16" d="M304.3,77.9c109.1,0,203.8,62,250.7,152.6c35.1,30.1,63.1,81.7,55.3,126.5c25.2,1.8,71.9,13.9,83.1,39.1
				c6.9,15.6,5.1,25.8-2,31.9c-8.5,7.2-22.2,7.9-34.9,8.4c-4,0.1-7.6,1.2-11.2,2.3c-12.2,3.6-17.1,7.7-31.5,15.9
				c-5.6,3.2-11.6,5.9-18.9,7.1c-8.4,10-19.2,17.9-36.3,18.3C523,556.5,453.8,614.2,369.9,634.4c-3,0.7-6,1.4-9,2
				c-18.1,3.8-37,5.7-56.5,5.7c-5.2,0-10.2-0.1-15.3-0.4c-149.6-8.3-267-131.5-267-281.7C22.2,204.2,148.5,77.9,304.3,77.9z"/>
			<path class="st17" d="M304.3,78.1c109.1,0,203.7,62,250.6,152.6c35.1,30.1,63.2,81.8,55.3,126.6c25.2,1.8,72,13.8,83.1,39
				c6.8,15.4,5.1,25.4-1.8,31.5c-8.2,7.2-21.7,8-34.3,8.5c-4,0.1-7.5,1.1-11.1,2.1c-12.4,3.3-17,6.8-31.2,15.3
				c-5.5,3.3-11.3,6.2-18.4,7.7c-8.6,9.8-19.6,17.4-37.3,17.1c-35.3,77.1-104.7,135.4-189,155.8c-3,0.7-6,1.4-9,2
				c-18.2,3.8-37.2,5.8-56.7,5.8c-5.2,0-10.2-0.1-15.3-0.4C139.6,633.2,22.4,510.1,22.4,360C22.4,204.3,148.6,78.1,304.3,78.1z"/>
			<path class="st18" d="M304.3,78.3c109,0,203.6,61.9,250.4,152.5c35.2,30.1,63.2,81.8,55.2,126.6c25.2,1.7,72,13.7,83.2,38.9
				c6.7,15.2,5.2,25.1-1.5,31.1c-7.9,7.2-21.2,8.2-33.7,8.6c-3.9,0.1-7.5,1-11,1.8c-12.6,3-16.9,5.9-30.9,14.7
				c-5.4,3.4-11,6.5-17.9,8.2c-8.8,9.6-20.1,16.9-38.4,15.8c-35,77.7-104.6,136.7-189.3,157.2c-3,0.7-6,1.4-9.1,2
				c-18.3,3.8-37.3,5.9-57,5.9c-5.2,0-10.2-0.1-15.3-0.4C139.8,633,22.5,510,22.5,360C22.5,204.4,148.7,78.3,304.3,78.3z"/>
			<path class="st19" d="M304.3,78.5c109,0,203.5,61.9,250.3,152.4c35.2,30.1,63.2,81.9,55.1,126.7c25.1,1.7,72.1,13.7,83.2,38.8
				c6.6,15,5.2,24.7-1.2,30.7c-7.7,7.2-20.7,8.3-33,8.8c-3.8,0.2-7.4,0.9-10.8,1.6c-12.8,2.6-16.9,5-30.5,14.1
				c-5.3,3.5-10.8,6.8-17.3,8.8c-9,9.4-20.5,16.4-39.4,14.6c-34.7,78.4-104.6,137.9-189.6,158.6c-3,0.7-6.1,1.4-9.1,2.1
				c-18.4,3.9-37.5,5.9-57.3,5.9c-5.2,0-10.2-0.1-15.3-0.4C139.9,632.8,22.7,509.9,22.7,360C22.7,204.5,148.8,78.5,304.3,78.5z"/>
			<path class="st20" d="M304.3,78.6c108.9,0,203.4,61.9,250.1,152.4c35.2,30.1,63.3,82,55.1,126.7c25.1,1.6,72.1,13.6,83.3,38.7
				c6.5,14.8,5.2,24.4-1,30.3c-7.4,7.1-20.2,8.4-32.4,8.9c-3.8,0.2-7.3,0.8-10.7,1.4c-13,2.3-16.8,4.1-30.2,13.5
				c-5.2,3.6-10.5,7.1-16.8,9.3c-9.2,9.1-21,15.9-40.5,13.3c-34.5,79-104.5,139.1-189.9,160.1c-3,0.7-6.1,1.4-9.2,2.1
				c-18.5,3.9-37.7,6-57.6,6c-5.2,0-10.2-0.1-15.3-0.4C140,632.7,22.9,509.8,22.9,360C22.9,204.6,148.9,78.6,304.3,78.6z"/>
			<path class="st21" d="M304.3,78.8c108.8,0,203.2,61.8,250,152.3c35.3,30.1,63.3,82.1,55,126.8c25,1.6,72.2,13.6,83.3,38.6
				c6.5,14.6,5.2,24-0.7,29.9c-7.1,7.1-19.7,8.5-31.8,9.1c-3.7,0.2-7.2,0.7-10.6,1.2c-13.2,1.9-16.7,3.2-29.8,12.9
				c-5.1,3.7-10.2,7.4-16.3,9.9c-9.3,8.9-21.4,15.4-41.5,12.1C527.6,551.2,457.4,611.9,371.5,633c-3,0.8-6.1,1.5-9.2,2.1
				c-18.5,4-37.9,6-57.9,6c-5.2,0-10.2-0.1-15.3-0.4C140.1,632.5,23.1,509.7,23.1,360C23.1,204.7,149,78.8,304.3,78.8z"/>
			<path class="st22" d="M304.3,79c108.8,0,203.1,61.8,249.8,152.2c35.3,30.2,63.3,82.2,54.9,126.8c25,1.6,72.3,13.5,83.4,38.5
				c6.4,14.3,5.2,23.7-0.4,29.5c-6.8,7.1-19.2,8.7-31.2,9.2c-3.6,0.2-7.1,0.6-10.5,1c-13.4,1.5-16.6,2.3-29.5,12.3
				c-5,3.8-10.4,6.8-15.8,10.4c-10.7,7.2-21.9,14.8-42.6,10.8c-33.9,80.3-104.3,141.6-190.6,162.9c-3.1,0.8-6.1,1.5-9.2,2.1
				c-18.6,4-38.1,6.1-58.1,6.1c-5.1,0-10.2-0.1-15.3-0.4C140.2,632.3,23.3,509.7,23.3,360C23.3,204.8,149.1,79,304.3,79z"/>
			<path class="st23" d="M304.3,79.2c108.7,0,203,61.8,249.7,152.2c35.3,30.2,63.4,82.2,54.9,126.9c24.9,1.5,72.3,13.5,83.4,38.4
				c6.3,14.1,5.2,23.3-0.1,29.1c-6.5,7.1-18.7,8.8-30.6,9.3c-3.6,0.2-7,0.5-10.4,0.8c-13.6,1.1-16.6,1.5-29.2,11.7
				c-4.8,3.9-10,7.3-15.3,11c-10.6,7.4-22.3,14.3-43.6,9.5c-33.6,81-104.3,142.8-190.9,164.4c-3.1,0.8-6.2,1.5-9.3,2.1
				c-18.7,4-38.2,6.2-58.4,6.2c-5.1,0-10.2-0.1-15.3-0.4C140.3,632.1,23.4,509.6,23.4,360C23.4,204.9,149.2,79.2,304.3,79.2z"/>
			<path class="st24" d="M304.3,79.4c108.7,0,202.9,61.8,249.5,152.1c35.4,30.2,63.4,82.3,54.8,126.9c24.9,1.5,72.4,13.4,83.5,38.3
				c6.2,13.9,5.2,23,0.1,28.7c-6.2,7-18.2,8.9-30,9.5c-3.5,0.2-6.9,0.4-10.2,0.6c-13.8,0.7-16.5,0.6-28.8,11.1
				c-4.7,4.1-9.6,7.9-14.8,11.6c-10.5,7.5-22.7,13.8-44.7,8.3c-33.4,81.6-104.2,144-191.2,165.8c-3.1,0.8-6.2,1.5-9.3,2.2
				c-18.8,4.1-38.4,6.2-58.7,6.2c-5.1,0-10.2-0.1-15.3-0.4C140.4,632,23.6,509.5,23.6,360C23.6,205,149.3,79.4,304.3,79.4z"/>
			<path class="st25" d="M304.3,79.5c108.6,0,202.8,61.7,249.4,152c35.4,30.2,63.4,82.4,54.7,127c24.9,1.4,72.5,13.4,83.5,38.3
				c6.1,13.7,5.2,22.6,0.4,28.3c-6,7-17.7,9-29.4,9.6c-3.4,0.2-6.8,0.3-10.1,0.4c-13.9,0.3-16.4-0.3-28.5,10.5
				c-4.6,4.2-9.2,8.4-14.3,12.1c-10.4,7.7-23.2,13.3-45.7,7C531.2,547.1,460.2,610,372.8,632c-3.1,0.8-6.2,1.5-9.4,2.2
				c-18.9,4.1-38.6,6.3-59,6.3c-5.1,0-10.2-0.1-15.3-0.4C140.5,631.8,23.8,509.4,23.8,360C23.8,205.1,149.4,79.5,304.3,79.5z"/>
			<path class="st26" d="M691.7,396.9c15.6,35.2-14.7,38-38.1,37.8c-14.1-0.1-16.3-1.2-28.1,9.9c-4.5,4.3-8.8,8.8-13.7,12.7
				c-10.3,7.9-23.6,12.8-46.8,5.8c-34,85.9-109.2,151-201.2,170.9c-19,4.2-38.8,6.3-59.3,6.3c-5.1,0-10.2-0.1-15.2-0.4
				C140.6,631.6,24,509.3,24,360C24,205.2,149.5,79.7,304.3,79.7c108.6,0,202.7,61.7,249.2,152c35.5,30.2,63.5,82.5,54.7,127
				C633,360.1,680.7,372.1,691.7,396.9z"/>
		</g>
		<g>
			<linearGradient id="SVGID_1_" gradientUnits="userSpaceOnUse" x1="525.3277" y1="581.0491" x2="131.1078" y2="186.8292">
				<stop  offset="0" style="stop-color:#E6E7E8"/>
				<stop  offset="0.4101" style="stop-color:#F1F2F2"/>
				<stop  offset="1" style="stop-color:#FFFFFF"/>
			</linearGradient>
			<path class="st27" d="M300.6,634.9c20.4,0,40.1-2.2,59-6.3c-19.1,4.1-38.9,6.3-59.2,6.3c-5,0-10-0.1-15-0.4
				C290.4,634.7,295.5,634.9,300.6,634.9z M602.4,356.3c24.3,0.9,73.1,12.9,84,37.3c20.6,46.3-42.3,32.9-51.6,36.3
				c-22,8-27.6,42.4-74.7,27.4c-33.6,86.1-108.7,151.4-200.7,171.3c-18.9,4.1-38.6,6.3-59,6.3c-5.1,0-10.1-0.1-15.2-0.4l-0.7,0
				l-0.8,0C137.5,625.8,21.6,504.5,21.6,356.1c0-154,124.8-278.8,278.8-278.8c108.1,0,201.8,61.5,248,151.4
				C584.2,259.1,612.2,312,602.4,356.3z"/>
			<linearGradient id="SVGID_2_" gradientUnits="userSpaceOnUse" x1="355.3517" y1="610.6867" x2="355.3517" y2="101.7835">
				<stop  offset="0" style="stop-color:#297D46"/>
				<stop  offset="0.6236" style="stop-color:#89C765"/>
				<stop  offset="1" style="stop-color:#D1E39B"/>
			</linearGradient>
			<path class="st28" d="M415.5,474.1l2.3-0.6l0.6-2.3c7.4-31.3,11-64,11.7-99.2l0.1-4h-118v118l4-0.1
				C351.5,485,384.2,481.4,415.5,474.1z M316.2,226.7l-4-0.1v118h118l-0.1-4c-0.8-35.2-4.3-68-11.7-99.2l-0.6-2.3l-2.3-0.6
				C384.2,231,351.4,227.5,316.2,226.7z M171,340.6l-0.1,4h118v-118l-4,0.1c-35.1,0.8-67.9,4.4-99.2,11.8l-2.3,0.6l-0.6,2.3
				C175.4,272.7,171.8,305.5,171,340.6z M288.9,579.2v-70l-3.8-0.1c-28.8-0.8-58.8-3.7-88.3-9.3l-6.6-1.2l2.1,6.3
				c6.8,20,15.4,39.6,26.1,59C240.5,572.6,264.1,577.9,288.9,579.2z M382.2,564.6c10.9-19.6,19.6-39.4,26.5-59.7l2.1-6.3l-6.6,1.2
				c-29.5,5.6-59.4,8.5-88.2,9.3l-3.8,0.1v70C336.6,578,360.2,572.9,382.2,564.6z M418.9,166.9c6.9,16.3,12.7,33.4,17.4,50.9
				l0.6,2.2l2.2,0.6c14.3,3.8,28.3,8.4,41.8,13.7c0.2,0.4,0.4,0.9,0.6,1.4c5.2,11.2,8.6,19.4,10.3,30c-14-6.8-28.1-12.6-42.4-17.5
				l-6.3-2.1l1.2,6.6c5.6,29.5,8.5,59.5,9.3,88.3l0.1,3.8H479c-0.5,8.2,0.3,16.2,2.8,23.4h-28.2l-0.1,3.8
				c-0.8,28.9-3.7,58.8-9.3,88.2l-1.2,6.6l6.3-2.1c19.1-6.5,37.8-14.6,56.3-24.7c-5.9,13.1-13,25.5-21.3,37.1
				c-14.7,5.9-29.8,10.9-45.3,15.1l-2.2,0.6l-0.6,2.2c-4.9,18.2-10.9,36-18.2,52.9c57.8-33.7,100.1-91.4,111.1-159.3
				c-20,0.5-43.2-6.7-42.4-41.2c0.6-27.7,15.6-40.8,13.9-70.4c-2-35.8-15.6-44.8-12.7-48.5c2.4-2.9,34.3,5.6,57.5,31.3
				c38.2,42.2,38.8,77.9,32,96.7c-5.5,15.2-15.5,26.5-32,30c-1.6,11.1-3.4,21.9-5.9,32.4c2-2.1,4.2-4.3,6.5-6.4
				c2-19.3,25-32,54.2-32c34.4,0,69.8,21,63.6,25.3c-6.2,4.3-17.7-5.7-37.3,1.4c-19.6,7.2-18.7,22.5-39.7,26.3
				c-19,3.4-30.5-2.8-37.6-8.3l-2.2,2.5c-10.5,12.5-17.6,26.7-24,39.4c-38.7,85.1-121.7,143.6-222.7,143.6
				C160,610.7,46.1,496.8,46.1,356.2c0-140.5,113.9-254.5,254.5-254.5c78.5,0,148.4,35.5,195.2,91.3c13.4,15.9-10.5,36-23.9,20.1
				C456.8,195.1,438.9,179.4,418.9,166.9z M312.2,133.3v70l3.8,0.1c28.9,0.8,58.8,3.7,88.3,9.3l6.6,1.2l-2.1-6.3
				c-6.8-20.1-15.5-39.7-26.3-59.1C360.5,139.8,336.9,134.5,312.2,133.3z M218.7,148.5c-10.8,19.3-19.4,38.9-26.3,59.1l-2.1,6.3
				l6.6-1.2c29.5-5.6,59.4-8.5,88.2-9.3l3.8-0.1v-70C264.2,134.5,240.6,139.8,218.7,148.5z M111.2,238c16.4-6.9,33.5-12.7,51-17.4
				l2.2-0.6l0.6-2.2c4.7-17.5,10.5-34.6,17.4-51C153.5,184.8,129.2,209.2,111.2,238z M77.6,344.5h70l0.1-3.8
				c0.8-28.8,3.7-58.7,9.3-88.2l1.2-6.6l-6.3,2.1c-20.1,6.8-39.7,15.5-59.1,26.2C84.1,296.3,78.9,319.9,77.6,344.5z M92.8,438.2
				c19.4,10.8,39,19.4,59.1,26.2l6.3,2.1l-1.2-6.6c-5.6-29.5-8.5-59.4-9.3-88.3l-0.1-3.8h-70C78.9,392.6,84.1,416.3,92.8,438.2z
				 M182.3,545.6c-6.9-16.4-12.7-33.5-17.4-51l-0.6-2.2l-2.2-0.6c-17.5-4.7-34.6-10.5-51-17.4C129.2,503.3,153.5,527.6,182.3,545.6z
				 M182.7,471.2l0.5,2.3l2.3,0.6c31.3,7.4,64,10.9,99.2,11.7l4,0.1v-118h-118l0.1,4C171.8,407.2,175.4,439.9,182.7,471.2z"/>
			<linearGradient id="SVGID_3_" gradientUnits="userSpaceOnUse" x1="526.4102" y1="582.1287" x2="130.0597" y2="185.7782">
				<stop  offset="0" style="stop-color:#D1D3D4"/>
				<stop  offset="0.7191" style="stop-color:#F1F2F2"/>
				<stop  offset="1" style="stop-color:#F1F2F2"/>
			</linearGradient>
			<path class="st29" d="M687.8,393c15.6,35.2-14.7,38-38.1,37.8c-14.1-0.1-16.3-1.2-28.1,9.9c-4.5,4.3-8.8,8.8-13.7,12.7
				c-10.3,7.9-23.6,12.8-46.8,5.8c-34,85.9-109.2,151-201.2,170.9c-19,4.2-38.8,6.3-59.3,6.3c-5.1,0-10.2-0.1-15.2-0.4
				C136.7,627.7,20.1,505.4,20.1,356.1c0-154.8,125.5-280.3,280.3-280.3c108.6,0,202.7,61.7,249.2,152c35.5,30.2,63.5,82.5,54.7,127
				C629.1,356.2,676.8,368.2,687.8,393z M685.1,394.2c-11.3-25.6-63-35.8-84.5-36.5c10.4-47.4-19.2-99-53.4-128
				C499.6,137.1,404.8,78.8,300.3,78.8C147.2,78.8,23.1,203,23.1,356.1c0,154.5,125.6,277.3,277.5,277.3c20.3,0,39.9-2.2,58.6-6.3
				c91.8-19.8,166.1-84.5,200.1-171.6c23.3,7.4,37.1,5.4,53.7-10.5c6.5-6.2,12.7-13.3,21.4-16.5c3.1-1.1,12-0.7,15.4-0.7
				C671,428,699.5,426.8,685.1,394.2z"/>
		</g>
	</g>
</g>
</svg>
